<mxfile host="Electron" agent="Mozilla/5.0 (Windows NT 10.0; Win64; x64) AppleWebKit/537.36 (KHTML, like Gecko) draw.io/25.0.2 Chrome/128.0.6613.186 Electron/32.2.5 Safari/537.36" version="25.0.2">
  <diagram name="Page-1" id="13e1069c-82ec-6db2-03f1-153e76fe0fe0">
    <mxGraphModel dx="1050" dy="621" grid="1" gridSize="10" guides="1" tooltips="1" connect="1" arrows="1" fold="1" page="1" pageScale="1" pageWidth="1100" pageHeight="850" background="none" math="0" shadow="0">
      <root>
        <mxCell id="0" />
        <mxCell id="1" parent="0" />
        <mxCell id="5EeETj5uWhUQC2B8DNMB-4" style="edgeStyle=orthogonalEdgeStyle;rounded=0;orthogonalLoop=1;jettySize=auto;html=1;endArrow=none;endFill=0;dashed=1;" parent="1" source="5EeETj5uWhUQC2B8DNMB-1" target="5EeETj5uWhUQC2B8DNMB-3" edge="1">
          <mxGeometry relative="1" as="geometry">
            <Array as="points">
              <mxPoint x="460" y="400" />
              <mxPoint x="460" y="400" />
            </Array>
          </mxGeometry>
        </mxCell>
        <mxCell id="5EeETj5uWhUQC2B8DNMB-1" value="" style="shape=umlActor;verticalLabelPosition=bottom;verticalAlign=top;html=1;outlineConnect=0;" parent="1" vertex="1">
          <mxGeometry x="445" y="288" width="30" height="60" as="geometry" />
        </mxCell>
        <mxCell id="5EeETj5uWhUQC2B8DNMB-13" style="edgeStyle=orthogonalEdgeStyle;rounded=0;orthogonalLoop=1;jettySize=auto;html=1;curved=0;endArrow=block;endFill=1;" parent="1" edge="1">
          <mxGeometry relative="1" as="geometry">
            <mxPoint x="465" y="407" as="sourcePoint" />
            <mxPoint x="580" y="407" as="targetPoint" />
          </mxGeometry>
        </mxCell>
        <mxCell id="5EeETj5uWhUQC2B8DNMB-27" style="edgeStyle=orthogonalEdgeStyle;rounded=0;orthogonalLoop=1;jettySize=auto;html=1;curved=0;" parent="1" edge="1">
          <mxGeometry relative="1" as="geometry">
            <mxPoint x="465" y="454" as="sourcePoint" />
            <mxPoint x="580" y="454" as="targetPoint" />
            <Array as="points">
              <mxPoint x="550" y="454" />
              <mxPoint x="550" y="454" />
            </Array>
          </mxGeometry>
        </mxCell>
        <mxCell id="5EeETj5uWhUQC2B8DNMB-3" value="" style="html=1;points=[[0,0,0,0,5],[0,1,0,0,-5],[1,0,0,0,5],[1,1,0,0,-5]];perimeter=orthogonalPerimeter;outlineConnect=0;targetShapes=umlLifeline;portConstraint=eastwest;newEdgeStyle={&quot;curved&quot;:0,&quot;rounded&quot;:0};" parent="1" vertex="1">
          <mxGeometry x="455" y="360" width="10" height="200" as="geometry" />
        </mxCell>
        <mxCell id="5EeETj5uWhUQC2B8DNMB-5" value="User" style="text;html=1;align=center;verticalAlign=middle;resizable=0;points=[];autosize=1;strokeColor=none;fillColor=none;" parent="1" vertex="1">
          <mxGeometry x="435" y="303" width="50" height="30" as="geometry" />
        </mxCell>
        <mxCell id="5EeETj5uWhUQC2B8DNMB-21" style="edgeStyle=orthogonalEdgeStyle;rounded=0;orthogonalLoop=1;jettySize=auto;html=1;curved=0;" parent="1" source="5EeETj5uWhUQC2B8DNMB-6" target="5EeETj5uWhUQC2B8DNMB-22" edge="1">
          <mxGeometry relative="1" as="geometry">
            <mxPoint x="700" y="435" as="targetPoint" />
            <Array as="points">
              <mxPoint x="680" y="420" />
              <mxPoint x="680" y="420" />
            </Array>
          </mxGeometry>
        </mxCell>
        <mxCell id="5EeETj5uWhUQC2B8DNMB-6" value="" style="html=1;points=[[0,0,0,0,5],[0,1,0,0,-5],[1,0,0,0,5],[1,1,0,0,-5]];perimeter=orthogonalPerimeter;outlineConnect=0;targetShapes=umlLifeline;portConstraint=eastwest;newEdgeStyle={&quot;curved&quot;:0,&quot;rounded&quot;:0};" parent="1" vertex="1">
          <mxGeometry x="580" y="360" width="10" height="190" as="geometry" />
        </mxCell>
        <mxCell id="5EeETj5uWhUQC2B8DNMB-7" style="edgeStyle=orthogonalEdgeStyle;rounded=0;orthogonalLoop=1;jettySize=auto;html=1;curved=0;exitX=1;exitY=0;exitDx=0;exitDy=5;exitPerimeter=0;entryX=0;entryY=0;entryDx=0;entryDy=5;entryPerimeter=0;endArrow=block;endFill=1;" parent="1" source="5EeETj5uWhUQC2B8DNMB-3" target="5EeETj5uWhUQC2B8DNMB-6" edge="1">
          <mxGeometry relative="1" as="geometry" />
        </mxCell>
        <mxCell id="5EeETj5uWhUQC2B8DNMB-8" value="Enter data&lt;div&gt;in textBox field&lt;/div&gt;" style="text;html=1;align=center;verticalAlign=middle;resizable=0;points=[];autosize=1;strokeColor=none;fillColor=none;" parent="1" vertex="1">
          <mxGeometry x="475" y="330" width="100" height="40" as="geometry" />
        </mxCell>
        <mxCell id="5EeETj5uWhUQC2B8DNMB-10" style="edgeStyle=orthogonalEdgeStyle;rounded=0;orthogonalLoop=1;jettySize=auto;html=1;endArrow=none;endFill=0;dashed=1;" parent="1" source="5EeETj5uWhUQC2B8DNMB-9" target="5EeETj5uWhUQC2B8DNMB-6" edge="1">
          <mxGeometry relative="1" as="geometry">
            <Array as="points">
              <mxPoint x="585" y="380" />
              <mxPoint x="585" y="380" />
            </Array>
          </mxGeometry>
        </mxCell>
        <mxCell id="5EeETj5uWhUQC2B8DNMB-9" value="App" style="html=1;whiteSpace=wrap;" parent="1" vertex="1">
          <mxGeometry x="535" y="300" width="100" height="32" as="geometry" />
        </mxCell>
        <mxCell id="5EeETj5uWhUQC2B8DNMB-14" value="Press button Add&lt;div&gt;Manga&lt;/div&gt;" style="text;html=1;align=center;verticalAlign=middle;resizable=0;points=[];autosize=1;strokeColor=none;fillColor=none;" parent="1" vertex="1">
          <mxGeometry x="470" y="372" width="110" height="40" as="geometry" />
        </mxCell>
        <mxCell id="5EeETj5uWhUQC2B8DNMB-15" style="edgeStyle=orthogonalEdgeStyle;rounded=0;orthogonalLoop=1;jettySize=auto;html=1;endArrow=none;endFill=0;dashed=1;" parent="1" edge="1">
          <mxGeometry relative="1" as="geometry">
            <mxPoint x="459.79" y="560" as="sourcePoint" />
            <mxPoint x="459.79" y="569" as="targetPoint" />
            <Array as="points">
              <mxPoint x="459.79" y="589" />
              <mxPoint x="459.79" y="589" />
            </Array>
          </mxGeometry>
        </mxCell>
        <mxCell id="5EeETj5uWhUQC2B8DNMB-16" value="" style="html=1;points=[[0,0,0,0,5],[0,1,0,0,-5],[1,0,0,0,5],[1,1,0,0,-5]];perimeter=orthogonalPerimeter;outlineConnect=0;targetShapes=umlLifeline;portConstraint=eastwest;newEdgeStyle={&quot;curved&quot;:0,&quot;rounded&quot;:0};direction=east;" parent="1" vertex="1">
          <mxGeometry x="705" y="460" width="10" height="80" as="geometry" />
        </mxCell>
        <mxCell id="5EeETj5uWhUQC2B8DNMB-17" value="callback request" style="html=1;verticalAlign=bottom;endArrow=block;curved=0;rounded=0;" parent="1" edge="1">
          <mxGeometry relative="1" as="geometry">
            <mxPoint x="590" y="473.70000000000005" as="sourcePoint" />
            <mxPoint x="705" y="473.70000000000005" as="targetPoint" />
            <Array as="points">
              <mxPoint x="645" y="473.7" />
            </Array>
          </mxGeometry>
        </mxCell>
        <mxCell id="5EeETj5uWhUQC2B8DNMB-18" value="return data" style="html=1;verticalAlign=bottom;endArrow=open;dashed=1;endSize=8;curved=0;rounded=0;exitX=0;exitY=1;exitDx=0;exitDy=-5;exitPerimeter=0;" parent="1" edge="1">
          <mxGeometry relative="1" as="geometry">
            <mxPoint x="590" y="520" as="targetPoint" />
            <mxPoint x="705" y="520" as="sourcePoint" />
          </mxGeometry>
        </mxCell>
        <mxCell id="5EeETj5uWhUQC2B8DNMB-23" style="edgeStyle=orthogonalEdgeStyle;rounded=0;orthogonalLoop=1;jettySize=auto;html=1;dashed=1;endArrow=none;endFill=0;" parent="1" source="5EeETj5uWhUQC2B8DNMB-20" edge="1">
          <mxGeometry relative="1" as="geometry">
            <mxPoint x="710" y="360" as="targetPoint" />
          </mxGeometry>
        </mxCell>
        <mxCell id="5EeETj5uWhUQC2B8DNMB-20" value="DataBase" style="html=1;whiteSpace=wrap;" parent="1" vertex="1">
          <mxGeometry x="660" y="300" width="100" height="32" as="geometry" />
        </mxCell>
        <mxCell id="5EeETj5uWhUQC2B8DNMB-22" value="" style="html=1;points=[[0,0,0,0,5],[0,1,0,0,-5],[1,0,0,0,5],[1,1,0,0,-5]];perimeter=orthogonalPerimeter;outlineConnect=0;targetShapes=umlLifeline;portConstraint=eastwest;newEdgeStyle={&quot;curved&quot;:0,&quot;rounded&quot;:0};" parent="1" vertex="1">
          <mxGeometry x="705" y="360" width="10" height="80" as="geometry" />
        </mxCell>
        <mxCell id="5EeETj5uWhUQC2B8DNMB-24" value="Add data to db" style="text;html=1;align=center;verticalAlign=middle;resizable=0;points=[];autosize=1;strokeColor=none;fillColor=none;" parent="1" vertex="1">
          <mxGeometry x="599" y="397" width="100" height="30" as="geometry" />
        </mxCell>
        <mxCell id="5EeETj5uWhUQC2B8DNMB-25" style="edgeStyle=orthogonalEdgeStyle;rounded=0;orthogonalLoop=1;jettySize=auto;html=1;endArrow=none;endFill=0;dashed=1;" parent="1" edge="1">
          <mxGeometry relative="1" as="geometry">
            <mxPoint x="709.88" y="440" as="sourcePoint" />
            <mxPoint x="710" y="460" as="targetPoint" />
            <Array as="points">
              <mxPoint x="709.88" y="460" />
              <mxPoint x="709.88" y="460" />
            </Array>
          </mxGeometry>
        </mxCell>
        <mxCell id="5EeETj5uWhUQC2B8DNMB-26" style="edgeStyle=orthogonalEdgeStyle;rounded=0;orthogonalLoop=1;jettySize=auto;html=1;endArrow=none;endFill=0;dashed=1;" parent="1" edge="1">
          <mxGeometry relative="1" as="geometry">
            <mxPoint x="709.79" y="540" as="sourcePoint" />
            <mxPoint x="709.79" y="549" as="targetPoint" />
            <Array as="points">
              <mxPoint x="709.79" y="569" />
              <mxPoint x="709.79" y="569" />
            </Array>
          </mxGeometry>
        </mxCell>
        <mxCell id="5EeETj5uWhUQC2B8DNMB-28" value="View catalog" style="text;html=1;align=center;verticalAlign=middle;resizable=0;points=[];autosize=1;strokeColor=none;fillColor=none;" parent="1" vertex="1">
          <mxGeometry x="475" y="430" width="90" height="30" as="geometry" />
        </mxCell>
        <mxCell id="5EeETj5uWhUQC2B8DNMB-30" value="get data" style="html=1;verticalAlign=bottom;endArrow=open;dashed=1;endSize=8;curved=0;rounded=0;exitX=0;exitY=1;exitDx=0;exitDy=-5;exitPerimeter=0;" parent="1" edge="1">
          <mxGeometry relative="1" as="geometry">
            <mxPoint x="500" y="529" as="targetPoint" />
            <mxPoint x="580" y="529" as="sourcePoint" />
          </mxGeometry>
        </mxCell>
        <mxCell id="5EeETj5uWhUQC2B8DNMB-31" style="edgeStyle=orthogonalEdgeStyle;rounded=0;orthogonalLoop=1;jettySize=auto;html=1;endArrow=none;endFill=0;dashed=1;" parent="1" edge="1">
          <mxGeometry relative="1" as="geometry">
            <mxPoint x="584.79" y="550" as="sourcePoint" />
            <mxPoint x="584.79" y="559" as="targetPoint" />
            <Array as="points">
              <mxPoint x="584.79" y="579" />
              <mxPoint x="584.79" y="579" />
            </Array>
          </mxGeometry>
        </mxCell>
      </root>
    </mxGraphModel>
  </diagram>
</mxfile>
